<svg xmlns="http://www.w3.org/2000/svg" viewBox="2135 1698.549 39.513 39.513">
  <defs>
    <style>
      .cls-1 {
        fill: #fff;
      }
    </style>
  </defs>
  <g id="instagram-logo" transform="translate(2190 1596)">
    <path id="Path_16" data-name="Path 16" class="cls-1" d="M28.608,0H10.9A10.916,10.916,0,0,0,0,10.9v17.7a10.916,10.916,0,0,0,10.9,10.9h17.7a10.917,10.917,0,0,0,10.9-10.9V10.9A10.916,10.916,0,0,0,28.608,0Zm7.4,28.609a7.407,7.407,0,0,1-7.4,7.4H10.9a7.406,7.406,0,0,1-7.4-7.4V10.9a7.407,7.407,0,0,1,7.4-7.4h17.7a7.407,7.407,0,0,1,7.4,7.4v17.7Z" transform="translate(-55 102.549)"/>
    <path id="Path_17" data-name="Path 17" class="cls-1" d="M51.149,40.97A10.181,10.181,0,1,0,61.331,51.151,10.193,10.193,0,0,0,51.149,40.97Zm0,16.856a6.675,6.675,0,1,1,6.676-6.675A6.683,6.683,0,0,1,51.149,57.826Z" transform="translate(-86.393 71.155)"/>
    <path id="Path_18" data-name="Path 18" class="cls-1" d="M121.492,28.251A2.569,2.569,0,1,0,123.31,29,2.581,2.581,0,0,0,121.492,28.251Z" transform="translate(-146.127 80.901)"/>
  </g>
</svg>
