<svg xmlns="http://www.w3.org/2000/svg" viewBox="8097.9 4774.688 186.052 151.311">
  <defs>
    <style>
      .cls-1, .cls-2 {
        fill: #fff;
      }

      .cls-1, .cls-4 {
        fill-rule: evenodd;
      }

      .cls-3, .cls-4 {
        fill: red;
      }
    </style>
  </defs>
  <g id="Group_36" data-name="Group 36" transform="translate(7640.298 4670)">
    <path id="Path_85" data-name="Path 85" class="cls-1" d="M4815.291,14518.595c6.558-.084,38.54,1.039,49.082,9.289a6.607,6.607,0,0,1,.206,6.516c-1.113,1.814-7.141,1.445-12.725.711-4.288-.561-8.393-.863-10.078-1.109.67,2.115,2.679,3.107,5.217,3.7,6.232,1.459,16.008-.346,19.518-1.328,4.612-1.014,8.479-1.18,11,.648,1.955,1.66,1.9,3.357-.141,5.1-1.912,1.623-4.677,1.557-7.345,1.578-2.2.021-4.341.1-5.854,1.266-1.08.832-.811,1.684,1.587,1.736,2.646.055,6.913.877,8.5-1.09,1.178-1.459,4.246.648,2.15,2.076-2.775,1.879-8.76,1.693-12.108,1.057-2.377-.443-5.281-3.307-2.527-5.432,1.89-1.461,5.087-2,9.277-1.891,1.534-.336,3.328-.152,4.268-.486,3.262-1.133,2.453-2.484-2.419-2.572-3.933-.074-7.551.963-11.417,2.322-5.661,1.99-21.354,2.637-22.662-5.67-.626-3.986-.443-5.176,3.618-5.432a21.872,21.872,0,0,1,6.352.992c.292,0,3.856.506,6.729.615,3.057.119,5.347-.172,2.84-.873a146.588,146.588,0,0,0-23.373-3.965c-6.741-.689-13.275-1.383-19.681-1.439-6.406.068-12.939.75-19.68,1.439a146.373,146.373,0,0,0-23.373,3.965c-2.507.7-.217.992,2.84.873,2.874-.109,6.438-.615,6.729-.615a21.926,21.926,0,0,1,6.352-.992c4.062.256,4.245,1.457,3.618,5.432-1.307,8.307-17,7.668-22.662,5.67-3.867-1.359-7.485-2.4-11.417-2.322-4.872.088-5.671,1.447-2.419,2.572.94.322,2.733.15,4.267.486,4.191-.109,7.389.441,9.279,1.891,2.753,2.125-.151,4.988-2.528,5.432-3.348.627-9.333.822-12.109-1.057-2.094-1.428.963-3.535,2.151-2.076,1.588,1.967,5.854,1.145,8.5,1.09,2.408-.053,2.678-.9,1.586-1.736-1.512-1.156-3.65-1.244-5.854-1.266-2.657-.021-5.434.045-7.345-1.578-2.042-1.738-2.1-3.436-.141-5.1,2.517-1.828,6.373-1.662,11-.648,3.509.982,13.285,2.787,19.518,1.328,2.537-.6,4.536-1.576,5.216-3.7-1.685.246-5.79.549-10.078,1.109-5.583.734-11.611,1.1-12.724-.711a6.584,6.584,0,0,1,.205-6.516c10.542-8.25,42.536-9.373,49.083-9.289Z" transform="translate(-4264.929 -14293.189)"/>
    <path id="Path_86" data-name="Path 86" class="cls-1" d="M5527.758,6682.964c-2.215.388-3.251.4-4.808,1.955a11.088,11.088,0,0,0-4.515,1.243,9.516,9.516,0,0,0-3.8,2.57c-.206,1.037.453,1.6.615,2.1-.085.454.022.573-.27.929a69.585,69.585,0,0,0-10.758-2.69c-2.927-.453-4.169.55-5.271,2.615a13.613,13.613,0,0,0-1.22,1.879c-.507,1.415-1.037,3.2-.465,3.791a1.679,1.679,0,0,0,2.031.044c.356-.195.626-.67.842-.724.55-.152,1.2.022,1.533-.26.271-.226.465-.734.735-.831.962,0,1.047.518,1.609.821.637.333,1.642.129,2.291.9.14.453.345,1.306.485,1.771a24.04,24.04,0,0,0,2.128,8.35,34.572,34.572,0,0,0,2.29,5.087c.271.323.551.637.821.96.453.552.4,1.308.864,1.859.41.323,1.166.346,1.577.669.593.454,1.361,1.005,1.955,1.458.584.065.994.908,1.621,1.609.173.195.421.195.615.378,1.113,1.038-.162,1.081,1.707.79.432-.066.714.441,1.049.528.14.507-.034.454.107.961.422.993,2,1.188,2.755,1.307.248.042.486.205.508.356a4.333,4.333,0,0,0,.236.8c-.065,1.189-1.555,1.265-.982,2.8.206.55.583.325,1.135,1.382.388.746-.162,1.945,1.155,2.5.044.022.183.628.366.939s.876.562.9.6c.259.541,1.4.347,1.76,1,.637,1.166.562,3.132.6,4.665.032,1.243-.021,2.583-.054,3.89a11.5,11.5,0,0,0,.637,4.558c.368,1.059.617,2.906,1.76,3.045.26.032,1.351,1.491,1.535,1.513,1.23.1-.713-2.085-.648-3.166a20.109,20.109,0,0,1,.044-3.219,4.593,4.593,0,0,1,1.587-2.343c.713-.626,1.653-1.263,2.28-1.932,1.014-1.091,1.813-2.388,2.73-3.534,2.042-2.528,2.939-4.925.336-7.518-1.372-1.372-2.808-3.3-4.483-4.807-.625-.561-1.565.562-2.279.174-.518-.281-.474-1.513-.972-2.106-.367-.444-1.252-.335-1.718-.335-4.946,0-7.127-1.361-10.3-3.165-.054-.033.713-2.248.27-2.376-.291-.087-1.944,1.577-2.453.432-.842-1.912-1.145-4.375,1.631-4.375.9,0,1.793.031,2.161.485.528.671.345,1.848.853,1.945,1.167.226.562-2.366.779-2.755.388-.7,1.371.141,1.944-.378.236-.215.1-1.836.313-2.052.292-.293,1.48-.151,1.826-.476.583-.54.108-1.814.712-2.441.864-.9,2.777-.982,3.521-1.879.464-.563,1.7-.044,1.837-.714.162-.841-.811-1.468-1.318-2.5-.615-1.265-.962-2.485-2.269-3.219a15.524,15.524,0,0,0-3.09-.7c-1.036-.088-.333,1.533-.906,2.18-.379.422-.022,2.205-.412,2.528-1.015.854-1.88-.108-1.88-1.566,0-.238-1.435-.8-2.181-1.209-1.264-.692-2.268-3.391,1.674-4.04.367-.065,1.328,1.155,1.826.616.431-.465.345-2.473.842-3.057.627-.724,1.966-.767,2.127.075.055.28-.528.972-.68,1.372-.227.584-.107,1.7.508,1.783a7.948,7.948,0,0,0,3.824-.4c.864-.5.625-1.6.756-2,.205-.6-.854-1.329-1.523-2.215-.227-.3-1.178-1.868-1.793-2.925-.789-1.362.13-1.9,1.264-2.7.313-.227,1.166-.184,1.479-.487.28-.269.41-1.328.638-1.565a18.544,18.544,0,0,0,1.792-1.458c.249-.344,1.015-.724,1.231-1.124.065-.128-.314-1.025-1.74-.906a14.432,14.432,0,0,0-3.38.733,23.285,23.285,0,0,1-2.862,1.242Z" transform="translate(-5002.226 -6540.254)"/>
    <path id="Path_93" data-name="Path 93" class="cls-2" d="M7100.291,6269a38.28,38.28,0,1,1-27.079,11.212A38.205,38.205,0,0,1,7100.291,6269Zm26.528,11.763a37.5,37.5,0,1,0,11,26.529A37.4,37.4,0,0,0,7126.819,6280.761Z" transform="translate(-6550.304 -6132.704)"/>
    <path id="Path_94" data-name="Path 94" class="cls-2" d="M4127.75,5377c19.506,0,37.167,5.346,49.966,14,12.843,8.674,20.783,20.675,20.783,33.939s-7.939,25.263-20.783,33.937c-12.788,8.641-30.459,14-49.966,14s-37.168-5.346-49.968-14C4064.939,5450.2,4057,5438.2,4057,5424.937s7.939-25.265,20.782-33.939C4090.57,5382.357,4108.242,5377,4127.75,5377Zm49.535,14.625c-12.67-8.566-30.189-13.858-49.535-13.858s-36.866,5.3-49.536,13.858c-12.627,8.534-20.447,20.306-20.447,33.3s7.81,24.768,20.447,33.3c12.67,8.565,30.19,13.857,49.536,13.857s36.865-5.3,49.535-13.857c12.626-8.534,20.447-20.307,20.447-33.3S4189.921,5400.158,4177.284,5391.625Z" transform="translate(-3577.763 -5250.34)"/>
    <path id="Path_95" data-name="Path 95" class="cls-2" d="M6606.658,12348.01c15.705,0,30.222,3.469,41.964,9.333l.712.355a2.261,2.261,0,0,0,.3.152c.258.142,1.047.282.787.41l-.831.432c-.271.142-.519-.27-.789-.411-.043-.021-.086-.041-.13-.064-11.7-5.93-26.247-9.449-42.006-9.449-15.65,0-30.1,3.467-41.757,9.319-.142.077-.282.142-.434.218-.227.118-.464.484-.69.354l-.768-.461c-.216-.13.433-.229.659-.348.15-.076.313-.161.464-.237,11.839-6.038,26.561-9.612,42.515-9.612Z" transform="translate(-6056.672 -12146.045)"/>
    <path id="Path_96" data-name="Path 96" class="cls-2" d="M6625.871,6295.835c.129.108-.3.161-.455.238-.247.129-.507.259-.755.389-11.805,5.983-26.464,9.526-42.352,9.526-16.007,0-30.772-3.6-42.622-9.667-.173-.086-.335-.173-.508-.26-.259-.129-1-.237-.756-.378l.81-.442c.249-.14.487.249.746.377.064.033.141.076.205.108,11.719,5.962,26.3,9.505,42.114,9.505,15.629,0,30.071-3.457,41.715-9.3.185-.1.367-.183.551-.28.215-.108.464-.5.658-.335l.626.53Z" transform="translate(-6032.334 -6158.632)"/>
    <path id="Path_97" data-name="Path 97" class="cls-1" d="M4086,9830h141.2v.768H4086Z" transform="translate(-3606.449 -9655.241)"/>
    <g id="Group_12" data-name="Group 12" transform="translate(483.5 167.574)">
      <path id="Union_2" data-name="Union 2" class="cls-2" d="M21.876,25.082c-.27,0-.723-.02-.411-.379.195-.214-.377-.214-.517-.268-.39-.141-.163-.562-.033-.821v-.023c.756-.258.3.444.691.692.086.067.347.076.442.173a4.04,4.04,0,0,1,0,.518c0,.1-.017.114-.063.114C21.96,25.088,21.924,25.082,21.876,25.082ZM18.744,22.61a.755.755,0,0,1-.821-.474,1.945,1.945,0,0,1,0-.237c.227-.292.216-.176.476-.176a1.185,1.185,0,0,1,.409.035c.433.151.174.473.174.788,0,.06-.04.073-.093.073S18.792,22.61,18.744,22.61ZM9.543,6.678c0-.488.13-1.125-.2-1.309a5.136,5.136,0,0,0-3.09-.55,5.965,5.965,0,0,1-1.512-.755c-.076-.6-.065-.488-.691-.488-.563,0-.9.2-.9-.409,0-.507.617-1.384.691-.821.13.972.227.561.9.487.388-.055,1.373.831,1.652,1.025a1.313,1.313,0,0,0,1.377.121,1.649,1.649,0,0,1,1.161-.056c.4.142-.033.757.412.757.983,0,1.167.863,1.167,1.855-.032.471-.262.66-.49.66A.5.5,0,0,1,9.543,6.678Zm-9.2-5.5C.134,1.071.2,1.08.2.834H.22V.693a.585.585,0,0,1-.2-.616C.026-.042.3.012.426.012c.194,0,.13.076.27.142A.168.168,0,0,0,.806.145C.856.131.9.118.9.155V.22C.9.294.948.283,1,.273s.137-.024.166.084a2.247,2.247,0,0,1,.065.614c0,.225-.214.3-.443.3A1.15,1.15,0,0,1,.34,1.179Z" transform="translate(0 0)"/>
    </g>
    <path id="Path_104" data-name="Path 104" class="cls-3" d="M5797.752,8292v.81H5781V8292h1.069a4.776,4.776,0,0,0,2.247-.465,1.984,1.984,0,0,0,.939-1.058,8.232,8.232,0,0,0,.27-2.765v-19.6a8.783,8.783,0,0,0-.27-2.863,2.237,2.237,0,0,0-1.047-1,4.588,4.588,0,0,0-2.14-.434H5781V8263h16.753v.818h-1.069a4.822,4.822,0,0,0-2.247.454,2.139,2.139,0,0,0-.971,1.062,8.416,8.416,0,0,0-.261,2.765v19.6a8.755,8.755,0,0,0,.271,2.862,2.353,2.353,0,0,0,1.069.994,4.442,4.442,0,0,0,2.139.431h1.069Z" transform="translate(-5283.141 -8105.168)"/>
    <path id="Path_105" data-name="Path 105" d="M6949.01,14700.663l1.881-.348.323,1.307,1.642-1.664,2.5-.451-1.891,1.705,2.841,1.729-2.312.418-1.631-1.186-.832.756.206.84-1.88.348-.854-3.453Zm8.1-1.461,2.107-.26,1.437,1.027,1.048-1.33,2.095-.246-2.062,2.32.237,1.471-1.9.227-.237-1.471-2.732-1.738Zm9.354,2.41-.356-3.521,3.187-.24a7.006,7.006,0,0,1,1.361-.008,1.688,1.688,0,0,1,.788.256.745.745,0,0,1,.346.553.63.63,0,0,1-.173.52,1.6,1.6,0,0,1-.573.389,3.7,3.7,0,0,1-.657.184,2.014,2.014,0,0,1,.507.1,1.52,1.52,0,0,1,.324.162,3.271,3.271,0,0,1,.292.2l1.026.949-2.161.164-1.133-.994a1.05,1.05,0,0,0-.379-.248,1.294,1.294,0,0,0-.477-.045l-.172.012.14,1.426-1.921.141Zm1.707-2.238.811-.064c.086-.01.247-.033.5-.084a.626.626,0,0,0,.3-.129.247.247,0,0,0,.1-.219.3.3,0,0,0-.217-.248,1.931,1.931,0,0,0-.724-.043l-.842.064.076.713Zm9.375.2-.043-.736,2.96-.127.087,1.5a7.7,7.7,0,0,1-1.48.52,8.317,8.317,0,0,1-1.545.184,6.512,6.512,0,0,1-1.814-.129,2.3,2.3,0,0,1-1.112-.584,1.424,1.424,0,0,1-.442-.953,1.388,1.388,0,0,1,.355-1.023,2.724,2.724,0,0,1,1.188-.705,6.9,6.9,0,0,1,1.686-.246,8.369,8.369,0,0,1,1.544.031,2.338,2.338,0,0,1,.864.295,1.433,1.433,0,0,1,.54.537l-1.837.271a.752.752,0,0,0-.409-.293,1.934,1.934,0,0,0-.7-.074,1.846,1.846,0,0,0-1,.293.863.863,0,0,0-.323.809.9.9,0,0,0,.433.8,1.927,1.927,0,0,0,1.069.193,3.344,3.344,0,0,0,.6-.074,6.653,6.653,0,0,0,.659-.205l-.021-.336-1.285.055Zm4.969-2.473,2.128-.035,1.274,1.18,1.231-1.209,2.117-.035-2.376,2.084.032,1.482-1.923.033-.032-1.482-2.463-2.018Zm8.835-.045,5.434.086-.011.705-3.521,2.008,3.606.055-.01.758-5.888-.09.012-.734,3.488-1.988-3.111-.043.012-.756Zm7.562,2.572,1.826.021a.647.647,0,0,0,.215.4,1.365,1.365,0,0,0,.833.246,1.494,1.494,0,0,0,.637-.074c.15-.064.227-.15.237-.248s-.055-.172-.194-.262a3.947,3.947,0,0,0-.973-.246,5.967,5.967,0,0,1-1.771-.508c-.345-.193-.518-.434-.5-.7a.7.7,0,0,1,.313-.5,2.031,2.031,0,0,1,.854-.346,6.449,6.449,0,0,1,1.534-.062,4.982,4.982,0,0,1,1.8.334,1.065,1.065,0,0,1,.692.828l-1.816-.02a.529.529,0,0,0-.279-.357,1.774,1.774,0,0,0-.628-.139,1.3,1.3,0,0,0-.507.053c-.118.045-.173.107-.184.184,0,.053.044.109.13.164a2.268,2.268,0,0,0,.637.16,13.668,13.668,0,0,1,1.782.389,1.861,1.861,0,0,1,.767.422.711.711,0,0,1,.216.531.815.815,0,0,1-.367.6,2.164,2.164,0,0,1-.95.391,6.457,6.457,0,0,1-1.5.076,4.733,4.733,0,0,1-2.171-.445,1.215,1.215,0,0,1-.638-.906Zm7.993-1.943,5.8.527-.108.865-1.944-.174-.325,2.646-1.911-.172.323-2.646-1.943-.174.108-.861Zm10.941,4.135-2.16-.256-.388.537-1.945-.236,2.884-3.221,2.074.25,1.739,3.779-1.987-.238-.206-.615Zm-.27-.8-.475-1.34-.887,1.178Zm5.454-1.426,1.75.346,1.771,2.352.508-1.9,1.761.344-.919,3.436-1.76-.346-1.762-2.344-.507,1.889-1.761-.344Z" transform="translate(-6438.525 -14469.67)"/>
    <path id="Path_106" data-name="Path 106" class="cls-2" d="M2069.219,4950.618l.183-.1,1.934,3.435-.184.1-.119-.215a1,1,0,0,0-.356-.4.6.6,0,0,0-.346-.065,2.424,2.424,0,0,0-.637.292l-4.32,2.43a2.289,2.289,0,0,0-.6.411.535.535,0,0,0-.1.334,1.132,1.132,0,0,0,.151.5l.119.216-.184.1-1.933-3.435.184-.1.118.216a1.013,1.013,0,0,0,.357.4.513.513,0,0,0,.345.064,2.368,2.368,0,0,0,.637-.292l4.321-2.43a2.605,2.605,0,0,0,.6-.411.544.544,0,0,0,.1-.345,1,1,0,0,0-.151-.5l-.119-.216Zm-8.112.162,2.733-5.324-2.96,1.338a1.567,1.567,0,0,0-.756.551,1.068,1.068,0,0,0,.086.941l-.184.086L2059,4946.1l.184-.087a2.02,2.02,0,0,0,.41.519.673.673,0,0,0,.4.108,2.181,2.181,0,0,0,.724-.227l5.725-2.593.075.172-3.618,7.237,4.374-1.976c.4-.184.615-.388.681-.638a1.079,1.079,0,0,0-.075-.711l-.076-.163.184-.087,1.1,2.442-.184.086a1.156,1.156,0,0,0-.594-.681,1.241,1.241,0,0,0-.875.13l-4.85,2.192-.118.226a1.489,1.489,0,0,0-.184.551,1.263,1.263,0,0,0,.119.531l-.184.086-1.1-2.441Zm-4.763-12.519,1.955-.6.065.2a3.512,3.512,0,0,0-.853.679,1.565,1.565,0,0,0-.292.714,1.863,1.863,0,0,0,.129.734l.173.54,5.552-1.739a2.223,2.223,0,0,0,.67-.28.626.626,0,0,0,.162-.313.991.991,0,0,0-.043-.519l-.076-.238.195-.064,1.177,3.77-.195.065-.076-.238a.966.966,0,0,0-.27-.464.571.571,0,0,0-.324-.141,2.216,2.216,0,0,0-.691.152l-5.552,1.738.163.519a1.579,1.579,0,0,0,.637.962,2.194,2.194,0,0,0,1.4.206l.065.2-1.955.6-2.02-6.468Zm-.594-4.385,3.024-.55-.021-.152a1.165,1.165,0,0,0-.627-.939,2.653,2.653,0,0,0-1.383-.162l-.043-.205,3.888-.713.043.206a2.993,2.993,0,0,0-.993.465,1.162,1.162,0,0,0-.454.593,1.948,1.948,0,0,0,.011.832l2.1-.378a2.687,2.687,0,0,0,.735-.194.412.412,0,0,0,.184-.237.876.876,0,0,0,0-.476l-.076-.442a2.7,2.7,0,0,0-.788-1.577,2.761,2.761,0,0,0-1.631-.638l-.032-.2,2.419-.1,1.167,6.415-.205.033-.043-.247a1,1,0,0,0-.216-.5.528.528,0,0,0-.3-.172,2.442,2.442,0,0,0-.7.064l-4.882.9a4.759,4.759,0,0,0-.616.141.55.55,0,0,0-.259.259.966.966,0,0,0-.054.594l.044.249-.205.033-1.134-6.21,2.193-.4.043.205a2.643,2.643,0,0,0-1.069.66,1.717,1.717,0,0,0-.367.907,4.476,4.476,0,0,0,.107,1.167l.141.767Zm2.495-8.565,2.117-.087a2.475,2.475,0,0,0,.767-.107.606.606,0,0,0,.249-.27,1.981,1.981,0,0,0,.065-.713l.2-.01.163,3.855-.206.01a1.554,1.554,0,0,0-.13-.7.569.569,0,0,0-.26-.25,2.534,2.534,0,0,0-.767-.044l-4.893.206a2.559,2.559,0,0,0-.767.108.515.515,0,0,0-.238.28,1.954,1.954,0,0,0-.065.714l-.205.01-.14-3.5a7.881,7.881,0,0,1,.108-2.008,1.994,1.994,0,0,1,.659-1.06,1.9,1.9,0,0,1,1.177-.454,1.815,1.815,0,0,1,1.4.541,2.465,2.465,0,0,1,.562,1.046l2.474-1.912a3.742,3.742,0,0,0,.594-.528,1.033,1.033,0,0,0,.173-.542l.205-.01.1,2.376-3.337,2.571.021.5Zm-3.694.152,3.3-.141-.01-.313a3.764,3.764,0,0,0-.184-1.145,1.183,1.183,0,0,0-.54-.583,1.878,1.878,0,0,0-.972-.184,1.739,1.739,0,0,0-1.253.454,1.783,1.783,0,0,0-.356,1.318l.021.595Zm-.368-8.9,4.9-3.413-3.24-.205a1.616,1.616,0,0,0-.929.13,1.075,1.075,0,0,0-.367.875l-.205-.011.162-2.483.2.01a1.715,1.715,0,0,0,.119.649.648.648,0,0,0,.3.281,2.261,2.261,0,0,0,.746.14l6.265.4-.011.2-6.589,4.688,4.785.3a.923.923,0,0,0,1.167-.9l.011-.173.206.011-.173,2.668-.205-.012a1.2,1.2,0,0,0-.205-.885,1.221,1.221,0,0,0-.832-.3l-5.314-.335-.216.152a1.691,1.691,0,0,0-.421.4,1.184,1.184,0,0,0-.14.518l-.206-.01.173-2.668Zm7-10.045-.67,2.582.626.5a1.6,1.6,0,0,0,.551.3.5.5,0,0,0,.519-.129,2.118,2.118,0,0,0,.313-.682l.195.055-.638,2.43-.195-.054a1.077,1.077,0,0,0-.162-.735,4.166,4.166,0,0,0-.94-.908l-5.141-4.137.021-.107,6.675-1.069a3.976,3.976,0,0,0,1.231-.335.988.988,0,0,0,.335-.464l.194.053-.918,3.533-.194-.054.043-.14a1.067,1.067,0,0,0,.032-.627.292.292,0,0,0-.216-.183.646.646,0,0,0-.2-.021c-.032,0-.184.021-.443.053l-1.015.151Zm-.443.075-2.8.433,2.225,1.782.573-2.2Zm-1.458-11.536,1.913.724-.076.184a3.194,3.194,0,0,0-1.091.01,1.527,1.527,0,0,0-.67.39,1.837,1.837,0,0,0-.356.659l-.194.529,5.444,2.052a2.086,2.086,0,0,0,.7.195.617.617,0,0,0,.324-.141.935.935,0,0,0,.28-.433l.087-.236.195.075-1.394,3.693-.194-.075.086-.238a1.12,1.12,0,0,0,.076-.54.485.485,0,0,0-.173-.3,2.26,2.26,0,0,0-.637-.3l-5.444-2.052-.194.508a1.553,1.553,0,0,0-.086,1.145,2.133,2.133,0,0,0,.983,1.026l-.076.195-1.912-.724,2.387-6.34Zm8.966-1.49.183.1-1.771,3.521-.184-.1.108-.226a1.034,1.034,0,0,0,.129-.53.535.535,0,0,0-.14-.324,2,2,0,0,0-.594-.367l-4.439-2.225a2.73,2.73,0,0,0-.67-.27.54.54,0,0,0-.335.107,1.051,1.051,0,0,0-.324.4l-.108.228-.183-.1,1.771-3.521.184.1-.108.228a1.032,1.032,0,0,0-.13.529.48.48,0,0,0,.141.324,2.511,2.511,0,0,0,.594.367l4.439,2.226a2.778,2.778,0,0,0,.67.27.6.6,0,0,0,.335-.108,1.039,1.039,0,0,0,.324-.4Zm-3.619-8.134a3.728,3.728,0,0,1,5.466-1.145,4,4,0,0,1,1.6,2.128,3.766,3.766,0,0,1-.594,3.414,3.822,3.822,0,0,1-2.927,1.8,4.046,4.046,0,0,1-2.625-.746,3.772,3.772,0,0,1-1.653-2.539A3.641,3.641,0,0,1,2064.628,4885.432Zm.335.141a1.708,1.708,0,0,0-.022,1.9,5.632,5.632,0,0,0,1.8,1.783,4.829,4.829,0,0,0,2.732,1.069,1.72,1.72,0,0,0,1.6-1.664,2.319,2.319,0,0,0-.508-1.274,6.319,6.319,0,0,0-1.523-1.383,6.735,6.735,0,0,0-2-1.046,2.172,2.172,0,0,0-1.264-.012,1.623,1.623,0,0,0-.81.638Zm4.893-6.654,5.962.432-2.387-2.192a1.546,1.546,0,0,0-.81-.476,1.043,1.043,0,0,0-.831.453l-.151-.14,1.685-1.836.152.141a2.066,2.066,0,0,0-.324.583.538.538,0,0,0,.065.4,2.213,2.213,0,0,0,.5.584l4.623,4.256-.129.139-8.08-.509,3.532,3.253a1.062,1.062,0,0,0,.843.377,1.1,1.1,0,0,0,.626-.345l.119-.13.151.141-1.815,1.966-.151-.141a1.228,1.228,0,0,0,.4-.81,1.153,1.153,0,0,0-.465-.756l-3.921-3.608-.259-.022a1.456,1.456,0,0,0-.572.044,1.222,1.222,0,0,0-.432.313l-.152-.14,1.815-1.966Zm11.46-3.576-2.031,1.729.238.767a1.605,1.605,0,0,0,.27.563.511.511,0,0,0,.5.194,1.986,1.986,0,0,0,.648-.378l.13.152-1.912,1.62-.129-.151a1.077,1.077,0,0,0,.292-.691,4.428,4.428,0,0,0-.248-1.285l-1.837-6.331.087-.064,6.081,2.96a3.889,3.889,0,0,0,1.21.431.817.817,0,0,0,.54-.194l.129.15-2.787,2.366-.13-.151.119-.1a1.093,1.093,0,0,0,.389-.5.284.284,0,0,0-.075-.271.474.474,0,0,0-.162-.129c-.033-.023-.163-.087-.4-.206l-.918-.454Zm-.41-.194-2.538-1.253.8,2.732Zm8.911-6.772,1.263,2.344-5.53,3.781-.119-.173.205-.141a.958.958,0,0,0,.367-.4.464.464,0,0,0,.033-.345,2.392,2.392,0,0,0-.346-.616l-2.8-4.093a2.568,2.568,0,0,0-.455-.562.555.555,0,0,0-.345-.065,1,1,0,0,0-.476.194l-.2.14-.119-.173,3.326-2.268.119.172-.27.184a1.051,1.051,0,0,0-.367.4.529.529,0,0,0-.033.347,2.4,2.4,0,0,0,.346.616l2.711,3.964a2.562,2.562,0,0,0,.475.572.422.422,0,0,0,.346.043,2.649,2.649,0,0,0,.583-.335l.518-.356a2.18,2.18,0,0,0,.713-.734,1.885,1.885,0,0,0,.195-.941,5.367,5.367,0,0,0-.3-1.425l.183-.13Z" transform="translate(-1596.398 -4744.86)"/>
    <path id="Path_107" data-name="Path 107" class="cls-2" d="M8216.537,3343.965l.43,2.052-.236.021a2.228,2.228,0,0,0-1.049-1.156,2.531,2.531,0,0,0-1.512-.312,1.49,1.49,0,0,0-.9.356.686.686,0,0,0-.248.616.592.592,0,0,0,.182.345,2.25,2.25,0,0,0,.617.368c.205.076.648.216,1.361.4a6.459,6.459,0,0,1,2.041.8,1.63,1.63,0,0,1,.67,1.026,1.5,1.5,0,0,1-.529,1.415,3.056,3.056,0,0,1-1.857.777,3.98,3.98,0,0,1-.713.022,7.411,7.411,0,0,1-.875-.129,1.588,1.588,0,0,0-.475-.043.625.625,0,0,0-.3.129.7.7,0,0,0-.227.313l-.215.022-.422-2.333.217-.021a2.844,2.844,0,0,0,1.252,1.393,2.811,2.811,0,0,0,1.664.346,1.645,1.645,0,0,0,.982-.389.746.746,0,0,0,.271-.691.718.718,0,0,0-.227-.411,1.491,1.491,0,0,0-.52-.335,8.292,8.292,0,0,0-1.154-.367,10.565,10.565,0,0,1-1.676-.54,2.731,2.731,0,0,1-.842-.573,1.415,1.415,0,0,1-.4-.767,1.457,1.457,0,0,1,.463-1.339,2.665,2.665,0,0,1,1.656-.713,3.547,3.547,0,0,1,.754-.011,6.19,6.19,0,0,1,.7.129,2.248,2.248,0,0,0,.574.087.363.363,0,0,0,.225-.1.583.583,0,0,0,.1-.367l.17-.021Zm9.223-.821.293,2.149-.23.022a2.4,2.4,0,0,0-1.133-1.21,2.951,2.951,0,0,0-1.641-.313,2.739,2.739,0,0,0-1.318.443,2.03,2.03,0,0,0-.789.951,3.2,3.2,0,0,0-.162,1.566,4.158,4.158,0,0,0,.477,1.491,2.124,2.124,0,0,0,.982.961,2.8,2.8,0,0,0,1.523.227,3.455,3.455,0,0,0,1.328-.367,4.2,4.2,0,0,0,1.189-.994l.076.54a4.425,4.425,0,0,1-1.275.908,5.124,5.124,0,0,1-1.654.389,6.1,6.1,0,0,1-2.3-.216,3.718,3.718,0,0,1-1.674-1.015,2.838,2.838,0,0,1-.746-1.544,2.7,2.7,0,0,1,.365-1.729,3.7,3.7,0,0,1,1.428-1.372,5.213,5.213,0,0,1,2.072-.615,6.246,6.246,0,0,1,1.807.141,3.516,3.516,0,0,0,.7.107.541.541,0,0,0,.313-.129.451.451,0,0,0,.129-.357l.229-.021Zm4.7,3.165.086,1.934a1.363,1.363,0,0,0,.1.594.7.7,0,0,0,.27.2,1.246,1.246,0,0,0,.529.076l.262-.011.008.173-4.156.119-.012-.172.258-.011a1.526,1.526,0,0,0,.553-.108.468.468,0,0,0,.227-.227,1.514,1.514,0,0,0,.041-.583l-.182-4.1a1.348,1.348,0,0,0-.1-.594.615.615,0,0,0-.268-.206,1.25,1.25,0,0,0-.529-.076l-.26.011-.012-.173,4.158-.119.012.172-.26.011a1.516,1.516,0,0,0-.551.108.469.469,0,0,0-.227.227,1.458,1.458,0,0,0-.043.583l.076,1.761,2.807-.076-.074-1.761a1.665,1.665,0,0,0-.086-.594.647.647,0,0,0-.27-.2,1.3,1.3,0,0,0-.541-.076l-.258.011-.014-.173,4.148-.119.012.173-.26.011a1.412,1.412,0,0,0-.551.108.459.459,0,0,0-.227.226,1.475,1.475,0,0,0-.041.584l.182,4.1a1.612,1.612,0,0,0,.086.594.631.631,0,0,0,.27.205,1.313,1.313,0,0,0,.541.076l.26-.011.01.173-4.148.119-.01-.172.258-.012a1.425,1.425,0,0,0,.553-.107.454.454,0,0,0,.225-.227,1.4,1.4,0,0,0,.045-.583l-.088-1.934Zm10.7-3.521a4.68,4.68,0,0,1,3.09.864,2.841,2.841,0,0,1,1.188,2.312,2.871,2.871,0,0,1-.885,2.085,4.431,4.431,0,0,1-3.318,1.2,4.53,4.53,0,0,1-3.314-1.145,2.9,2.9,0,0,1-.928-2.139,2.784,2.784,0,0,1,1.211-2.312,4.5,4.5,0,0,1,2.957-.875Zm.074.292a1.865,1.865,0,0,0-1.662.875,3.772,3.772,0,0,0-.465,2.063,3.39,3.39,0,0,0,.713,2.366,1.819,1.819,0,0,0,1.395.529,2.019,2.019,0,0,0,1-.227,1.877,1.877,0,0,0,.8-.939,4.154,4.154,0,0,0,.293-1.685,4.479,4.479,0,0,0-.293-1.847,1.8,1.8,0,0,0-.746-.864,2.046,2.046,0,0,0-1.047-.248Zm9.82.064a4.518,4.518,0,0,1,3,1.037,2.751,2.751,0,0,1,.984,2.376,2.976,2.976,0,0,1-1.07,2.031,4.567,4.567,0,0,1-3.412,1.015,4.414,4.414,0,0,1-3.209-1.318,2.792,2.792,0,0,1-.734-2.182,2.943,2.943,0,0,1,1.4-2.247,4.547,4.547,0,0,1,3.037-.7Zm.045.292a1.925,1.925,0,0,0-1.74.778,4.035,4.035,0,0,0-.648,2.03,3.277,3.277,0,0,0,.506,2.4,1.741,1.741,0,0,0,1.35.6,1.872,1.872,0,0,0,1.914-1.069,4.176,4.176,0,0,0,.432-1.663,4.256,4.256,0,0,0-.129-1.858,1.767,1.767,0,0,0-.67-.907A2.082,2.082,0,0,0,8251.1,3343.436Zm11.936,4.861-.586,2.149-7.021-.583.021-.173.262.021a1.286,1.286,0,0,0,.561-.054.437.437,0,0,0,.26-.206,1.585,1.585,0,0,0,.141-.572l.551-4.083a1.623,1.623,0,0,0,.012-.6.453.453,0,0,0-.24-.227,1.192,1.192,0,0,0-.516-.13l-.262-.021.023-.173,4.213.346-.021.173-.348-.033a1.343,1.343,0,0,0-.572.054.5.5,0,0,0-.27.205,1.553,1.553,0,0,0-.141.573l-.529,3.953a1.692,1.692,0,0,0-.012.616.424.424,0,0,0,.25.216,3.958,3.958,0,0,0,.7.1l.658.054a2.763,2.763,0,0,0,1.07-.086,2.114,2.114,0,0,0,.8-.486,4.332,4.332,0,0,0,.734-1.06l.238.022Z" transform="translate(-7687.709 -3238.087)"/>
    <path id="Path_108" data-name="Path 108" class="cls-2" d="M16881.924,5521.973a4.015,4.015,0,0,1,1.428,2.82,3.96,3.96,0,0,1-.982,2.884,3.745,3.745,0,0,1-2.213,1.318,3.512,3.512,0,0,1-3.178-1.091,4.075,4.075,0,0,1-1.371-3.22,4.135,4.135,0,0,1,1.023-2.548,3.461,3.461,0,0,1,5.293-.152Zm-.17.314a1.59,1.59,0,0,0-1.8-.3,5.306,5.306,0,0,0-1.9,1.567,4.946,4.946,0,0,0-1.336,2.614,1.636,1.636,0,0,0,.539,1.4,1.577,1.577,0,0,0,.863.454,2.133,2.133,0,0,0,1.275-.324,6.047,6.047,0,0,0,1.5-1.339,6.611,6.611,0,0,0,1.236-1.88,2.424,2.424,0,0,0,.162-1.285,1.756,1.756,0,0,0-.523-.917Zm5.467,6.589-2.266,2.009.139.174a1.978,1.978,0,0,0,.611.55,1.173,1.173,0,0,0,.7.1,2.284,2.284,0,0,0,.891-.4l.117.15-2.777,2.453-.123-.152a1.671,1.671,0,0,0,.273-2.441l-.143-.173-1.691,1.49a2.484,2.484,0,0,0-.492.519.675.675,0,0,0-.027.356,1.01,1.01,0,0,0,.227.465l.152.193-.152.131-2.441-3.123.148-.129.152.193a1.04,1.04,0,0,0,.412.347.45.45,0,0,0,.336,0,2.072,2.072,0,0,0,.549-.411l3.631-3.207a2.457,2.457,0,0,0,.494-.518.619.619,0,0,0,.035-.356.926.926,0,0,0-.236-.465l-.154-.194.154-.13,3.936,5.034-1.58,1.4-.141-.184a1.975,1.975,0,0,0,.578-1.047,1.928,1.928,0,0,0-.2-1.069,6.233,6.233,0,0,0-.7-1.027l-.43-.551Zm3.332,13.739,5.125-.562,1.436,2.765-.176.1-.119-.216a.985.985,0,0,0-.344-.42.528.528,0,0,0-.324-.076,1.922,1.922,0,0,0-.6.28l-4.16,2.409a1.9,1.9,0,0,0-.572.412.569.569,0,0,0-.1.345,1.123,1.123,0,0,0,.139.507l.121.217-.176.1-1.846-3.542.17-.1.123.215a1.017,1.017,0,0,0,.346.422.508.508,0,0,0,.322.075,2.079,2.079,0,0,0,.615-.281l4.678-2.711-7.115.736-.068-.119,4.346-5.953-4.453,2.571a5.537,5.537,0,0,0-.561.358.816.816,0,0,0-.227.506,1.4,1.4,0,0,0,.2.767l-.172.1-1.209-2.323.176-.1.031.063a1.136,1.136,0,0,0,.289.379.8.8,0,0,0,.342.184,1.03,1.03,0,0,0,.428-.044,3.628,3.628,0,0,0,.473-.27l4-2.311a2.574,2.574,0,0,0,.57-.4.655.655,0,0,0,.1-.346.964.964,0,0,0-.15-.506l-.1-.217.166-.1,1.447,2.776-3.176,4.31Zm7.391,6.612-2.74,1.09.053.14a1.24,1.24,0,0,0,.762.842,2.523,2.523,0,0,0,1.332-.075l.074.205-3.533,1.4-.076-.205a2.926,2.926,0,0,0,.857-.648,1.263,1.263,0,0,0,.324-.68,1.986,1.986,0,0,0-.164-.842l-1.9.756a2.6,2.6,0,0,0-.658.323.453.453,0,0,0-.139.271.992.992,0,0,0,.086.474l.154.432a2.752,2.752,0,0,0,1.025,1.448,2.462,2.462,0,0,0,1.654.345l.074.195-2.26.528-2.254-6.252.18-.076.088.238a1.036,1.036,0,0,0,.289.463.433.433,0,0,0,.314.12,1.976,1.976,0,0,0,.648-.185l4.439-1.761a3.656,3.656,0,0,0,.551-.248.475.475,0,0,0,.2-.3,1.057,1.057,0,0,0-.064-.6l-.088-.237.184-.075,2.193,6.049-2,.788-.078-.2a2.576,2.576,0,0,0,.9-.855,1.865,1.865,0,0,0,.188-.972,4.836,4.836,0,0,0-.318-1.155l-.27-.746Zm-5.023,7.149.2-.032.037.249a1.192,1.192,0,0,0,.2.485.609.609,0,0,0,.314.205,2.151,2.151,0,0,0,.67-.075l4.668-.909a2.524,2.524,0,0,0,.668-.193.5.5,0,0,0,.2-.292,1.3,1.3,0,0,0,.012-.529l-.045-.248.2-.044.625,3.392a5.8,5.8,0,0,1,.057,2.258,3.293,3.293,0,0,1-.992,1.78,3.957,3.957,0,0,1-3.279.909,3.167,3.167,0,0,1-1.16-.463,3.052,3.052,0,0,1-.834-.811,5.419,5.419,0,0,1-.631-1.23,7.571,7.571,0,0,1-.26-1.059l-.625-3.392Zm7.227,1.6-5.541,1.069a1.791,1.791,0,0,0-.529.151.276.276,0,0,0-.121.184,1.161,1.161,0,0,0,0,.454,1.746,1.746,0,0,0,.865,1.307,3.909,3.909,0,0,0,2.623.182,4.529,4.529,0,0,0,2.1-.884,1.917,1.917,0,0,0,.689-1.1,3.865,3.865,0,0,0-.086-1.372Zm-5.613,10.823h-.2l-.15-4.028h.2l.014.258a1.175,1.175,0,0,0,.129.54.436.436,0,0,0,.27.215,1.878,1.878,0,0,0,.67.044l4.752-.119a2.291,2.291,0,0,0,.688-.075.535.535,0,0,0,.236-.258,1.064,1.064,0,0,0,.09-.519l-.014-.258h.2l.148,4.028h-.193l-.012-.261a1.24,1.24,0,0,0-.129-.539.531.531,0,0,0-.273-.227,1.909,1.909,0,0,0-.666-.043l-4.756.12a2.375,2.375,0,0,0-.687.074.562.562,0,0,0-.24.259,1.045,1.045,0,0,0-.082.519l.01.26Zm6.715,8.727-2.5-.271.023-.215a2.6,2.6,0,0,0,1.578-.766,2.43,2.43,0,0,0,.639-1.48,2.507,2.507,0,0,0-.281-1.36,2.341,2.341,0,0,0-.953-.984,4.631,4.631,0,0,0-1.762-.55,5.593,5.593,0,0,0-1.779.077,2.079,2.079,0,0,0-1.781,2.083,2.956,2.956,0,0,0,.189,1.361,4.662,4.662,0,0,0,.932,1.382l-.625-.065a3.97,3.97,0,0,1-.965-3.1,4.932,4.932,0,0,1,.639-2.127,3.227,3.227,0,0,1,1.447-1.329,3.593,3.593,0,0,1,1.891-.324,3.732,3.732,0,0,1,1.912.789,4.149,4.149,0,0,1,1.318,1.7,4.486,4.486,0,0,1,.342,2.128,4.784,4.784,0,0,1-.463,1.674,3.587,3.587,0,0,0-.248.637.441.441,0,0,0,.1.324.68.68,0,0,0,.383.214l-.027.217Zm-7.953,4.125-.189-.042.648-3.963.189.042-.041.248a1.434,1.434,0,0,0,.023.552.5.5,0,0,0,.219.27,2.184,2.184,0,0,0,.648.195l4.688.939a2.133,2.133,0,0,0,.688.074.455.455,0,0,0,.281-.2,1.006,1.006,0,0,0,.184-.486l.041-.249.2.043-.646,3.964-.193-.042.041-.25a1.188,1.188,0,0,0-.018-.551.543.543,0,0,0-.219-.28,2.382,2.382,0,0,0-.648-.195l-4.687-.939a2.179,2.179,0,0,0-.689-.075.518.518,0,0,0-.281.205,1.1,1.1,0,0,0-.186.486l-.047.248Zm6.029,5.326-5.322,2.171,2.982,1a1.4,1.4,0,0,0,.895.1,1.078,1.078,0,0,0,.533-.777l.193.064-.7,2.431-.191-.065a2.063,2.063,0,0,0,.035-.67.744.744,0,0,0-.217-.345,2.065,2.065,0,0,0-.672-.325l-5.77-1.954.057-.183,7.18-3.014-4.4-1.491a.964.964,0,0,0-.891.022,1.163,1.163,0,0,0-.393.594l-.055.173-.187-.064.746-2.6.186.063a1.3,1.3,0,0,0,0,.929,1.184,1.184,0,0,0,.713.508l4.895,1.652.225-.1a1.4,1.4,0,0,0,.477-.292,1.266,1.266,0,0,0,.238-.486l.191.064-.746,2.6Zm-3.332,8.868-2.7-1.308-.045.14a1.278,1.278,0,0,0-.016,1.155,2.857,2.857,0,0,0,1,.951l-.084.2-3.471-1.686.094-.195a2.8,2.8,0,0,0,1.033.195,1.1,1.1,0,0,0,.68-.227,1.865,1.865,0,0,0,.441-.7l-1.867-.906a3.381,3.381,0,0,0-.691-.281.427.427,0,0,0-.283.088.971.971,0,0,0-.254.4l-.176.421a2.926,2.926,0,0,0-.223,1.782,2.878,2.878,0,0,0,.949,1.492l-.078.193-1.979-1.338,2.521-6.05.184.087-.1.238a1.065,1.065,0,0,0-.094.54.554.554,0,0,0,.15.323,2.227,2.227,0,0,0,.6.358l4.354,2.116a2.7,2.7,0,0,0,.555.238.5.5,0,0,0,.354-.065.876.876,0,0,0,.352-.475l.1-.239.188.087-2.445,5.866-1.955-.95.086-.2a2.438,2.438,0,0,0,1.213.076,1.575,1.575,0,0,0,.777-.54,4.3,4.3,0,0,0,.537-1.037l.307-.725Z" transform="translate(-16257.908 -5392.613)"/>
    <g id="Group_13" data-name="Group 13" transform="translate(521.129 141.226)">
      <path id="Path_109" data-name="Path 109" class="cls-1" d="M8772.09,6729.739c1.014-1.135,1.423-2.106,2.169-2.484,1.254-.627,2.83-.249,5.251-.821,1.965.271,3.889-1.371,4.773-.691a8.264,8.264,0,0,1,1.665,2.518c.277.507-.369.55-.466,1.069-.271.388-.551.777-.821,1.165-.043,1.006-.086,2.021-.142,3.025-.2.69-.409,1.371-.614,2.063l-2.129,3.165a8.4,8.4,0,0,1-3.228,1.446c-.229.528-.456,1.06-.692,1.577-1.76,1.21-2.443.4-3.706-1.1-.064-.271-.14-.551-.206-.82-1.262-.691-1.111-1.353-1.167-2.743.089-.639.186-1.286.272-1.924.087-.733.185-1.469.271-2.2a4.857,4.857,0,0,0-1.116-1.016c-.841-.5-.548-.2-.979.323-.346.411-.779.52-1.1-.291a1.925,1.925,0,0,1,.1-1.361c.474-.854.9-.7,1.858-.9Z" transform="translate(-8761.021 -6725.576)"/>
      <path id="Path_110" data-name="Path 110" class="cls-1" d="M10053.994,8097.4l-.855-1.028-.14-.648.614-.485,1-.237,1.1.1.9.8-.994.712-.628.411-.171.313-.369.27h-.378Z" transform="translate(-10030.126 -8080.208)"/>
      <path id="Path_111" data-name="Path 111" class="cls-1" d="M15022.846,10570.012a5.248,5.248,0,0,1-.27,1.232l-1.3.408-.271,1.513.205,1.167h.9l-.066,1.307.691.14,2.475-1.782.818-.615,1.232-.142.693.821.689.066,1.717-.206,1.1-1.167,2.473-2.537.963-1.783-1.652-1.858-.963-1.576-1.168.552-.484,1.371h-.9l-1.027-1.1-1.986.408-.9,1.1-.963.065h-1.23l-1.166.755-.064.691.484,1.168Z" transform="translate(-14944.465 -10523.528)"/>
      <path id="Path_112" data-name="Path 112" class="cls-1" d="M10352.731,7162.475c-.637-.143-1.283-.271-1.921-.411-.368-.14-.735-.271-1.1-.411-.3-.508-.6-1-.9-1.512-.269-.163-.549-.324-.82-.486.161-.249.325-.507.487-.756.088-.14.184-.27.27-.411-.344-.324-.69-.638-1.026-.961q-.242-.617-.485-1.231c.3-.41.593-.821.9-1.231.615.205,1.23.41,1.856.615.021-.453.045-.917.065-1.371.119-.962.228-1.923.347-2.885.508-.064,1-.141,1.511-.205.821-.3,1.654-.594,2.475-.9.348-.918.69-1.837,1.025-2.744.691-.508,1.371-1,2.064-1.513.549-.323,1.1-.637,1.652-.96q.612-.583,1.231-1.167c.117-.615.226-1.23.345-1.857v-1.1c-.183-.205-.368-.41-.551-.616-.228.509-.453,1-.692,1.513-.139.41-.27.821-.408,1.232-.6.086-1.189.183-1.782.27-.044-.324-.087-.638-.141-.962-.573-1.08-1.146-2.149-1.719-3.229-.042-.595-.086-1.188-.141-1.782-.118-.411-.226-.82-.345-1.231.043-.454.086-.918.141-1.372.247-.432.508-.875.755-1.307.551-.433,1.1-.874,1.654-1.307.711-.3,1.414-.594,2.126-.9.345-.118.692-.227,1.027-.346.118.734.226,1.469.344,2.2.024.345.046.69.064,1.026.229.247.456.507.693.755.205.119.409.227.615.346l.41.065c.185-.573.366-1.146.551-1.718-.161-.615-.324-1.23-.484-1.857.042-.433.084-.876.14-1.308.433-.205.874-.411,1.306-.615l1.1-.486c-.249-.551-.508-1.1-.756-1.652-.324-.529-.637-1.06-.962-1.577-.246-.637-.507-1.286-.754-1.923-.53-.065-1.06-.14-1.578-.205-.454.346-.92.691-1.374,1.026-.839.324-1.693.637-2.537.961l-1.986-.064-1.717.064c-.509.043-1.006.087-1.514.141h-1.232c-.225-.119-.453-.227-.688-.347-.412-.226-.822-.453-1.232-.69-.044.346-.088.69-.141,1.025-.141.325-.271.638-.41.963-.227.118-.454.226-.691.345h-3.154l-1.783.486c-.8.043-1.6.086-2.407.14h-1.514c-.14-.14-.27-.269-.408-.409.119-.368.226-.734.344-1.1.228-.118.455-.228.692-.345-.14-.249-.27-.508-.409-.757-.391-.086-.78-.183-1.167-.27h-2.614c-.325.205-.637.409-.962.614-.391.454-.777.919-1.167,1.373-.205.043-.409.086-.615.141-.3.2-.595.41-.9.615-.347.713-.691,1.415-1.026,2.128h-1.168c-.527-.064-1.058-.141-1.576-.206-.16.227-.323.454-.485.692-.12.2-.227.41-.346.615-.347.065-.69.141-1.024.205-.348-.086-.692-.184-1.027-.27-1.394-1.61-2.117-1.577-.9-3.37.875-.572,1.566-.681,1.329-1.1-.614-1.08-1.425.109-2.083.616l-.615.486c-.368,1.447.107,2.095,1.025,3.229.086.205.182.41.27.616v.55c-.346.249-.692.508-1.026.756l-1.1.065c-.366.389-.735.778-1.1,1.167-.324.454-.636.918-.962,1.372-.3.14-.594.27-.9.409q-.582-.242-1.164-.486c-.12-.227-.228-.453-.347-.69.064-.205.139-.41.2-.616.27-.14.551-.27.821-.41a2.312,2.312,0,0,0,.205-.14l.064-1.231c-.636-.207-1.286-.411-1.922-.616-.3-.086-.594-.183-.9-.27-.27-.119-.552-.228-.821-.346-.919.085-1.837.183-2.743.27-.087.064-.184.141-.271.206-.27.345-.552.69-.821,1.026l-1.167.55c-.247.042-.507.087-.755.141q.032.551.063,1.1c-.249.638-.507,1.285-.755,1.922-.065.552-.142,1.1-.207,1.653-.064.367-.14.734-.205,1.1.185.086.369.184.552.271h2.743c.3-.249.594-.508.9-.757.021-.454.043-.917.063-1.372.187-.9.369-1.781.553-2.679.41-.086.82-.184,1.232-.269.2.755.41,1.512.615,2.269.042.323,1.738.981,1.782,1.307a.751.751,0,0,1-.185.874,32.373,32.373,0,0,1-3.8,1.879c-.367.077-1.458.045-1.166.486-.26.238-1.545-.907-1.806-.669-.474.421-.139,1.317-.3,2.149-.085.433-.949.68-1.2.907-.453.259-1.222.194-1.577.551s-.3.993-.745,1.252c-.119.433.625,1.589.518,2.032-.129.5-1.8.615-2.365.647-.14.529-.27,1.059-.41,1.577q-.549,1.75-1.1,3.5v1.448c-.555.594-1.31,1.35-1.167,2.268s.69,1.479.819,2.409c.249.594-.011,1.188.237,1.781.045.249.606.509.648.757.691.249,1.372,1.394,2.063,1.652.778.044,1.459-.324,2.234-.27.575.064,1.255-.172,1.827-.108a3.677,3.677,0,0,1,1.653.789c.432.529,1.207.366,1.651.9.119.55.226,1.1.345,1.652a15.288,15.288,0,0,1,.584,1.9,14.674,14.674,0,0,1-.033,1.675c.994.992.724.755.724,2.03a8.784,8.784,0,0,0,.521,2.364c.571.735.733,1.6,1.306,2.334-.02.366.637.454.616.82-.044,1.329,1.146,3.035,3.068,1.707.258-.184.2-.594.638-1.092.322-.377.723-.615.831-.928.605-.811.463-1.221,1.23-1.869a3.137,3.137,0,0,0,1.308-2.02c.087-.605-.142-1.221.054-1.707a2,2,0,0,1,.724-.788c.647-.464,1.146-.853.562-1.8-.228-.379-.9-.475-1.059-.854.066-.367.142-.735.206-1.1.162-.595,1.08-.777,1.23-1.373.346-.506.346-1.414.691-1.921.822-.162.92-.639,1.1-1.447.205-.412,1.371-1.687,1.575-2.1-.16-.271-1.728.723-1.889.442-.8-.118-1.157-.638-1.956-.757-.508-.367-1-.734-1.513-1.1-.451-.658-.917-1.328-1.371-1.987-.14-.507-.271-1-.408-1.513.04-.366.084-.734.138-1.1.715-.227,1.416-.454,2.129-.691.3.433.594.875.9,1.307.021.346.044.692.065,1.026.346.485.69.961,1.026,1.447.455,0,.778,1.1,1.232,1.1.41-.065,1.024-.207,1.446-.271.3-.205.529-1.447.82-1.652.161-.3.324-.594.486-.9-.616-.389-1.232-.778-1.856-1.166-.118-.3-.229-.594-.349-.9.92-.162,1.838-.323,2.746-.486,1-.044,2.02-.086,3.021-.142.962.454,1.925.919,2.887,1.373.345.325.69.637,1.027.962.14.367.267.734.409,1.1.3.432.593.875.9,1.308.508.118,1,.225,1.513.344l3.369-1.166c.454-.389.92-.777,1.372-1.167.226-.161.455-.323.692-.485.227.529.453,1.058.689,1.576.044.163.088.324.142.486.118.552.226,1.1.345,1.653l-.615,1.23c.247.248.508.508.755.758.507.323,1,.637,1.513.961.51.3,1.006.594,1.513.9.551.064,1.1.14,1.652.205.249.043.507.085.756.141h.346c.022-.162.043-.325.065-.487Z" transform="translate(-10275.862 -7119.695)"/>
      <path id="Path_113" data-name="Path 113" class="cls-1" d="M12578.016,11322a6.819,6.819,0,0,1,.173,2.433,4.109,4.109,0,0,1-.691,1.738,1.261,1.261,0,0,1-1.911-.692c-.087-.8,1.08-2.127,2.418-3.479Z" transform="translate(-12525.462 -11272.349)"/>
      <path id="Path_114" data-name="Path 114" class="cls-1" d="M15701.1,10260.713c-.434-.2-.82-.336-.756-.9.1-.842,1.578-.82,2.268-.82h2.949c1.469,0-.594,1.35-1.027,1.58A4.93,4.93,0,0,1,15701.1,10260.713Z" transform="translate(-15616.468 -10220.828)"/>
      <path id="Path_115" data-name="Path 115" class="cls-1" d="M15892,9172.459a1.132,1.132,0,0,0,.691.2c.27,0,.246-.1.484-.2.164-.066.207-.086.207-.271a1.856,1.856,0,0,0,0-.346,2.534,2.534,0,0,0-.348-.268c-.041-.021-.031-.033-.064-.066a1.737,1.737,0,0,0-.344-.205c-.076-.012-.271-.129-.346-.062a1.737,1.737,0,0,0-.143.2c-.041.15-.051-.021-.064.141s-.064.107-.064.27c0,.238.012.369,0,.617Z" transform="translate(-15806.058 -9144.804)"/>
      <path id="Path_116" data-name="Path 116" class="cls-1" d="M15865.6,8388.8a2.775,2.775,0,0,1-.348.269c-.271.186-.248-.8-.139-.961a1.812,1.812,0,0,1,.689-.552c.15-.074.508-.422.549-.063.023.172.045-.043.066.14a2.627,2.627,0,0,1,0,.411c0,.313-.3.031-.484.141-.154.087-.184.5-.348.616Z" transform="translate(-15779.39 -8369.381)"/>
      <path id="Path_117" data-name="Path 117" class="cls-1" d="M10407.1,8753.653a3.1,3.1,0,0,0-.035.96c0,.194-.031.314.174.314.289,0,.615.033.926.033.143,0,.1-.066.111-.176.02-.237.182-.354.031-.55-.012-.021.012-.041,0-.064a5.957,5.957,0,0,0-.477-.44c-.084-.056-.238-.089-.344-.144-.152-.076-.152.035-.379.066Z" transform="translate(-10380.345 -8731.655)"/>
      <path id="Path_118" data-name="Path 118" class="cls-1" d="M10589.008,8562.892v.517c0,.291.09.347.38.347.238,0,.282.031.41-.141.064-.085.034-.26.034-.379s-.044-.108-.139-.173c-.067-.041-.012-.055-.035-.107-.021-.032-.13-.075-.171-.108-.023-.011-.088-.054-.111-.065-.184-.183-.19-.053-.378.11Z" transform="translate(-10560.336 -8542.848)"/>
      <path id="Path_119" data-name="Path 119" class="cls-1" d="M10710.9,8748.585c0,.494-.044,1.188.409,1.436a1.6,1.6,0,0,0,.313,0c.185,0,.508-.205.476-.411s-.141-.29-.141-.519c0-.324,0-.441-.27-.585a1.089,1.089,0,0,0-.41-.031C10711.071,8748.475,10711.039,8748.432,10710.9,8748.585Z" transform="translate(-10680.918 -8726.619)"/>
      <path id="Path_120" data-name="Path 120" class="cls-1" d="M7935.666,9982.818c.15.2.734.11.993.11.475,0,.81.129.756-.412-.044-.421-1.265-.518-1.578-.518a.864.864,0,0,0-.441.344c-.021.152-.065.1.032.207.173.174.107-.077.345.313l-.106-.031Z" transform="translate(-7935.366 -9946.825)"/>
      <path id="Path_121" data-name="Path 121" class="cls-1" d="M8293.309,10135.938a5.721,5.721,0,0,1,.694.065,1.437,1.437,0,0,0,.205,0c.171,0,.277-.389.139-.519a1.238,1.238,0,0,0-1.2-.206c-.063.042-.431.323-.345.41.032.032.238-.021.27,0,.1.064.053.141.237.237Z" transform="translate(-8288.929 -10098.367)"/>
      <path id="Path_122" data-name="Path 122" class="cls-1" d="M8528.011,10254.8a.162.162,0,0,0,.063.108c.034.021.034.053.065.065.12.063.217.053.345.106s.175.055.175-.106v-.1c-.011-.044-.064-.055-.109-.109s-.054-.009-.141-.033c-.03-.008-.03-.03-.063-.03h-.174c-.1,0-.085-.033-.172.108Z" transform="translate(-8521.599 -10216.583)"/>
      <path id="Path_123" data-name="Path 123" class="cls-1" d="M11352.053,8258.865c.205.293.225.627.055.757s-.488-.011-.7-.3-.225-.628-.053-.758S11351.846,8258.572,11352.053,8258.865Z" transform="translate(-11314.349 -8241.955)"/>
    </g>
    <path id="Path_124" data-name="Path 124" class="cls-4" d="M8984.237,7563.553a8.044,8.044,0,0,0-3.812-3.984q-3.986-5.332-11.267-4.6c-10.272,1.372-15.327,10.53-8.381,18.632,2.387,2.776,6.795,5.056,12.433,7.41,8.326,3.488,11.838,11.309,4.6,14.971-10.177,5.151-18.914-4.43-20.954-12.843-2.193.777.733,9.374,2.2,11a15.711,15.711,0,0,0,12.25,6.307,16.672,16.672,0,0,0,11.317-3.91q5.155-4.5,4.6-8.846a11.747,11.747,0,0,0-4.571-7.853c-4.2-3.187-9.223-5.347-12.8-7.4-2.937-1.675-5.465-2.84-6.858-6.146a5.8,5.8,0,0,1,3.326-7.982,11.663,11.663,0,0,1,6.826-.68c2.324.389,4.5,1.1,5.078,3.736.712,1.577,1.036,3.673,2.159,4.979,1.489,1.771,2.55,3.5,4.463,4.536a1.258,1.258,0,0,0,.991-2.095C8985.223,7567.16,8984.572,7564.232,8984.237,7563.553Zm-1.491-.725c.207.292.229.627.056.758s-.486-.013-.69-.3-.229-.627-.056-.758S8982.544,7562.537,8982.746,7562.828Z" transform="translate(-8423.917 -7404.694)"/>
    <path id="Path_125" data-name="Path 125" class="cls-3" d="M12627.568,8304.2l7.311-19.162h10.953v.8h-.876a3.614,3.614,0,0,0-1.9.442,2.128,2.128,0,0,0-.8,1,9.7,9.7,0,0,0-.217,2.679v19.162a10.557,10.557,0,0,0,.217,2.788,2.067,2.067,0,0,0,.9.972,3.4,3.4,0,0,0,1.813.42h.876v.789h-14.065v-.789h.877a3.553,3.553,0,0,0,1.911-.452,2.022,2.022,0,0,0,.789-1.039,9.63,9.63,0,0,0,.216-2.7V8287.56l-10.315,26.518h-.486l-10.487-26.333v20.479a20.315,20.315,0,0,0,.1,2.646,3.053,3.053,0,0,0,1.123,1.739,4.372,4.372,0,0,0,2.711.68v.789H12609v-.789h.281a4.031,4.031,0,0,0,1.664-.312,2.711,2.711,0,0,0,1.176-.885,4.552,4.552,0,0,0,.617-1.566c.033-.162.042-.887.042-2.193v-18.395a10.409,10.409,0,0,0-.214-2.756,2.059,2.059,0,0,0-.9-.96,3.415,3.415,0,0,0-1.812-.421H12609v-.8h11l7.562,19.162Z" transform="translate(-12037.387 -8126.93)"/>
  </g>
</svg>
