<svg xmlns="http://www.w3.org/2000/svg" viewBox="2240 1703 30.619 30.619">
  <defs>
    <style>
      .cls-1 {
        fill: #fff;
      }
    </style>
  </defs>
  <g id="skype-logo" transform="translate(2240.001 1702.998)">
    <path id="Path_129" data-name="Path 129" class="cls-1" d="M28.732,17.9A13.676,13.676,0,0,0,12.721,1.889,7.68,7.68,0,0,0,1.886,12.724,13.676,13.676,0,0,0,17.9,28.734,7.68,7.68,0,0,0,28.732,17.9ZM15.569,23.73c-4.048,0-7.422-1.809-7.422-4.018a1.719,1.719,0,0,1,1.809-1.871c1.932,0,2.117,2.76,5.429,2.76,1.594,0,2.607-.705,2.607-1.625,0-1.135-.981-1.319-2.576-1.717l-2.638-.644c-2.607-.644-4.631-1.718-4.631-4.723,0-3.65,3.619-5,6.716-5,3.4,0,6.84,1.349,6.84,3.4a1.862,1.862,0,0,1-1.871,1.963c-1.748,0-1.81-2.055-4.631-2.055-1.564,0-2.576.429-2.576,1.38,0,1.043,1.012,1.288,2.393,1.595l1.87.43c2.545.582,5.582,1.656,5.582,4.785C22.47,22.043,18.943,23.73,15.569,23.73Z" transform="translate(0 0)"/>
  </g>
</svg>
