<svg xmlns="http://www.w3.org/2000/svg" viewBox="2044 1698.117 20.147 39.883">
  <defs>
    <style>
      .cls-1 {
        fill: #fff;
      }
    </style>
  </defs>
  <path id="XMLID_835_" class="cls-1" d="M77.346,21.242h4.372v18a.643.643,0,0,0,.643.643h7.413a.643.643,0,0,0,.643-.643V21.327h5.026a.643.643,0,0,0,.639-.57l.763-6.626a.643.643,0,0,0-.639-.717H90.418V9.26c0-1.252.674-1.887,2-1.887h3.785a.643.643,0,0,0,.643-.643V.648A.643.643,0,0,0,96.207,0H90.99c-.037,0-.118,0-.239,0a10,10,0,0,0-6.536,2.464,6.854,6.854,0,0,0-2.279,6.093v4.857h-4.59a.643.643,0,0,0-.643.643V20.6A.643.643,0,0,0,77.346,21.242Z" transform="translate(1967.297 1698.117)"/>
</svg>
